<svg xmlns="http://www.w3.org/2000/svg" viewBox="0 0 480 100" width="480" height="100">
  <defs>
    <linearGradient id="anvil-body-l" x1="0" y1="0" x2="0" y2="1">
      <stop offset="0%" stop-color="#F59E0B"/>
      <stop offset="100%" stop-color="#DC6316"/>
    </linearGradient>
    <linearGradient id="anvil-top-l" x1="0" y1="0" x2="1" y2="0">
      <stop offset="0%" stop-color="#FBBF24"/>
      <stop offset="100%" stop-color="#F59E0B"/>
    </linearGradient>
    <linearGradient id="spark-l" x1="0" y1="1" x2="1" y2="0">
      <stop offset="0%" stop-color="#D97706"/>
      <stop offset="100%" stop-color="#F59E0B"/>
    </linearGradient>
  </defs>

  <!-- Anvil icon -->
  <g transform="translate(10, 12)">
    <rect x="20" y="64" width="48" height="5" rx="2" fill="#B45309" opacity="0.5"/>
    <path d="M16 64 L22 46 L66 46 L72 64 Z" fill="url(#anvil-body-l)"/>
    <rect x="16" y="38" width="56" height="10" rx="3" fill="url(#anvil-top-l)"/>
    <path d="M16 39 L2 43 L2 47 L16 48 Z" fill="#F59E0B" opacity="0.85"/>
    <circle cx="30" cy="28" r="2.8" fill="url(#spark-l)"/>
    <circle cx="46" cy="20" r="2.2" fill="url(#spark-l)" opacity="0.9"/>
    <circle cx="58" cy="26" r="1.8" fill="url(#spark-l)" opacity="0.8"/>
    <circle cx="24" cy="18" r="1.6" fill="url(#spark-l)" opacity="0.65"/>
    <circle cx="52" cy="12" r="1.4" fill="url(#spark-l)" opacity="0.55"/>
    <circle cx="38" cy="10" r="1.2" fill="url(#spark-l)" opacity="0.4"/>
  </g>

  <!-- "forge" text as paths -->
  <g transform="translate(104, 65)" fill="#1C1917">
    <path d="M14.43,-23.79 L14.43,-21.88 L21.15,-21.88 L21.15,-17.48 L14.43,-17.48 L14.43,-0.00 L8.71,-0.00 L8.71,-17.48 L3.40,-17.48 L3.40,-21.88 L8.71,-21.88 L8.71,-23.40 Q8.71,-27.34 10.35,-28.87 Q11.99,-30.39 16.44,-30.39 L21.15,-30.39 L21.15,-25.99 L16.68,-25.99 Q15.39,-25.99 14.93,-25.53 Q14.48,-25.06 14.43,-23.79 Z M36.11,-17.76 Q34.06,-17.76 32.89,-15.95 Q31.72,-14.14 31.72,-10.92 Q31.72,-7.69 32.89,-5.89 Q34.06,-4.08 36.11,-4.08 Q38.18,-4.08 39.35,-5.89 Q40.53,-7.69 40.53,-10.92 Q40.53,-14.14 39.35,-15.95 Q38.18,-17.76 36.11,-17.76 Z M25.99,-10.92 Q25.99,-16.21 28.74,-19.31 Q31.48,-22.40 36.11,-22.40 Q40.76,-22.40 43.51,-19.31 Q46.25,-16.21 46.25,-10.92 Q46.25,-5.62 43.51,-2.53 Q40.76,0.57 36.11,0.57 Q31.48,0.57 28.74,-2.53 Q25.99,-5.62 25.99,-10.92 Z M70.65,-15.84 Q69.71,-16.70 68.45,-17.12 Q67.19,-17.56 65.68,-17.56 Q63.87,-17.56 62.51,-16.92 Q61.15,-16.29 60.41,-15.08 Q59.94,-14.34 59.75,-13.28 Q59.57,-12.23 59.57,-10.08 L59.57,-0.00 L53.85,-0.00 L53.85,-21.88 L59.57,-21.88 L59.57,-18.48 Q60.41,-20.35 62.15,-21.38 Q63.89,-22.40 66.21,-22.40 Q67.38,-22.40 68.50,-22.12 Q69.63,-21.84 70.65,-21.29 L70.65,-15.84 Z M87.93,-11.29 Q87.93,-14.22 86.81,-15.99 Q85.70,-17.76 83.89,-17.76 Q82.09,-17.76 80.98,-15.99 Q79.88,-14.24 79.88,-11.29 Q79.88,-8.32 80.98,-6.56 Q82.09,-4.81 83.89,-4.81 Q85.70,-4.81 86.81,-6.57 Q87.93,-8.34 87.93,-11.29 Z M93.65,-1.64 Q93.65,3.61 91.28,5.94 Q88.91,8.28 83.58,8.28 Q81.78,8.28 80.02,8.02 Q78.26,7.76 76.45,7.21 L76.45,1.96 Q78.06,2.85 79.75,3.28 Q81.43,3.71 83.20,3.71 Q85.63,3.71 86.78,2.57 Q87.93,1.43 87.93,-0.99 L87.93,-3.36 Q87.09,-1.80 85.70,-1.04 Q84.31,-0.28 82.33,-0.28 Q78.58,-0.28 76.36,-3.20 Q74.16,-6.13 74.16,-11.15 Q74.16,-16.35 76.36,-19.39 Q78.58,-22.44 82.28,-22.44 Q84.16,-22.44 85.62,-21.56 Q87.09,-20.68 87.93,-19.08 L87.93,-21.88 L93.65,-21.88 L93.65,-1.64 Z M117.85,-1.07 Q115.86,-0.26 113.79,0.16 Q111.72,0.57 109.42,0.57 Q103.93,0.57 101.03,-2.37 Q98.13,-5.31 98.13,-10.84 Q98.13,-16.19 100.92,-19.29 Q103.71,-22.40 108.53,-22.40 Q113.40,-22.40 116.08,-19.52 Q118.77,-16.64 118.77,-11.41 L118.77,-9.08 L103.95,-9.08 Q103.97,-6.51 105.47,-5.23 Q106.97,-3.96 109.96,-3.96 Q111.93,-3.96 113.85,-4.53 Q115.76,-5.10 117.85,-6.33 L117.85,-1.07 Z M113.01,-13.38 Q112.97,-15.64 111.85,-16.81 Q110.72,-17.97 108.53,-17.97 Q106.57,-17.97 105.39,-16.77 Q104.22,-15.57 104.00,-13.36 L113.01,-13.38 Z"/>
  </g>

  <!-- "-gpu" text as paths -->
  <g transform="translate(219.37, 65)" fill="#D97706">
    <path d="M5.88,-14.36 L18.21,-14.36 L18.21,-8.68 L5.88,-8.68 L5.88,-14.36 Z M39.76,-11.29 Q39.76,-14.22 38.65,-15.99 Q37.54,-17.76 35.73,-17.76 Q33.93,-17.76 32.82,-15.99 Q31.72,-14.24 31.72,-11.29 Q31.72,-8.32 32.82,-6.56 Q33.93,-4.81 35.73,-4.81 Q37.54,-4.81 38.65,-6.57 Q39.76,-8.34 39.76,-11.29 Z M45.49,-1.64 Q45.49,3.61 43.11,5.94 Q40.74,8.28 35.41,8.28 Q33.61,8.28 31.86,8.02 Q30.10,7.76 28.28,7.21 L28.28,1.96 Q29.90,2.85 31.58,3.28 Q33.26,3.71 35.04,3.71 Q37.46,3.71 38.61,2.57 Q39.76,1.43 39.76,-0.99 L39.76,-3.36 Q38.93,-1.80 37.54,-1.04 Q36.15,-0.28 34.16,-0.28 Q30.41,-0.28 28.20,-3.20 Q25.99,-6.13 25.99,-11.15 Q25.99,-16.35 28.20,-19.39 Q30.41,-22.44 34.12,-22.44 Q35.99,-22.44 37.46,-21.56 Q38.93,-20.68 39.76,-19.08 L39.76,-21.88 L45.49,-21.88 L45.49,-1.64 Z M56.80,-3.09 L56.80,8.32 L51.10,8.32 L51.10,-21.88 L56.80,-21.88 L56.80,-18.59 Q57.70,-20.49 59.16,-21.44 Q60.63,-22.40 62.60,-22.40 Q66.35,-22.40 68.41,-19.39 Q70.49,-16.39 70.49,-10.92 Q70.49,-5.37 68.39,-2.40 Q66.29,0.57 62.40,0.57 Q60.65,0.57 59.25,-0.34 Q57.85,-1.25 56.80,-3.09 Z M64.76,-10.96 Q64.76,-14.12 63.71,-15.91 Q62.66,-17.71 60.80,-17.71 Q58.95,-17.71 57.87,-15.91 Q56.80,-14.12 56.80,-10.96 Q56.80,-7.79 57.87,-5.99 Q58.95,-4.20 60.80,-4.20 Q62.66,-4.20 63.71,-5.99 Q64.76,-7.79 64.76,-10.96 Z M75.37,-7.64 L75.37,-21.88 L81.10,-21.88 L81.10,-8.52 Q81.10,-6.15 81.76,-5.13 Q82.42,-4.12 83.96,-4.12 Q85.51,-4.12 86.38,-5.49 Q87.25,-6.86 87.25,-9.32 L87.25,-21.88 L92.97,-21.88 L92.97,-0.00 L87.25,-0.00 L87.25,-3.24 Q86.64,-1.43 85.18,-0.43 Q83.73,0.57 81.68,0.57 Q78.55,0.57 76.96,-1.50 Q75.37,-3.58 75.37,-7.64 Z"/>
  </g>
</svg>